<svg width="21" height="21" viewBox="0 0 21 21" fill="none" xmlns="http://www.w3.org/2000/svg">
<path d="M14.8271 10.2036L14.8626 12.1032C14.9229 15.3243 12.3605 17.9844 9.13937 18.0446C5.91827 18.1048 3.25823 15.5424 3.19801 12.3213L3.1625 10.4216C3.1563 10.0903 3.41986 9.81673 3.75118 9.81053L14.216 9.61489C14.5473 9.60869 14.8209 9.87225 14.8271 10.2036Z" stroke="#403F3D" stroke-width="1.5" stroke-linecap="round" stroke-linejoin="round"/>
<path d="M10.619 8.01515C10.6034 7.18197 11.1829 6.33765 12.3732 6.3154V6.3154C13.6879 6.29082 14.7338 5.20509 14.7092 3.89036L14.6992 3.35474" stroke="#403F3D" stroke-width="1.5" stroke-linecap="round" stroke-linejoin="round"/>
<path d="M7.28592 8.0775L7.27813 7.66091C7.25232 6.28044 8.3505 5.14042 9.73097 5.11461V5.11461C10.6513 5.09741 11.3834 4.3374 11.3662 3.41708L11.3584 3.00049" stroke="#403F3D" stroke-width="1.5" stroke-linecap="round" stroke-linejoin="round"/>
<path d="M13.9824 9.61914L16.0654 9.5802C17.2158 9.55869 18.1658 10.4738 18.1873 11.6242C18.2088 12.7746 17.2937 13.7246 16.1433 13.7461L14.8935 13.7695" stroke="#403F3D" stroke-width="1.5" stroke-linecap="round" stroke-linejoin="round"/>
</svg>
